<?xml version="1.0" encoding="UTF-8" standalone="no"?>
<!-- Created with Inkscape (http://www.inkscape.org/) -->

<svg
   width="200mm"
   height="200mm"
   viewBox="0 0 200 200"
   version="1.1"
   id="svg5"
   inkscape:version="1.1.2 (b8e25be833, 2022-02-05)"
   sodipodi:docname="Character.svg"
   xmlns:inkscape="http://www.inkscape.org/namespaces/inkscape"
   xmlns:sodipodi="http://sodipodi.sourceforge.net/DTD/sodipodi-0.dtd"
   xmlns="http://www.w3.org/2000/svg"
   xmlns:svg="http://www.w3.org/2000/svg">
  <sodipodi:namedview
     id="namedview7"
     pagecolor="#505050"
     bordercolor="#eeeeee"
     borderopacity="1"
     inkscape:pageshadow="0"
     inkscape:pageopacity="0"
     inkscape:pagecheckerboard="0"
     inkscape:document-units="mm"
     showgrid="false"
     inkscape:snap-object-midpoints="true"
     showguides="false"
     inkscape:zoom="4"
     inkscape:cx="62.875"
     inkscape:cy="111.75"
     inkscape:window-width="2560"
     inkscape:window-height="1377"
     inkscape:window-x="-8"
     inkscape:window-y="-8"
     inkscape:window-maximized="1"
     inkscape:current-layer="layer1" />
  <defs
     id="defs2" />
  <g
     inkscape:label="Layer 1"
     inkscape:groupmode="layer"
     id="layer1">
    <ellipse
       style="fill:#ececec;fill-opacity:1;stroke:#373748;stroke-width:1.32624;stroke-miterlimit:4;stroke-dasharray:none;stroke-dashoffset:62.3201;stroke-opacity:1"
       id="path12850"
       cx="20.500061"
       cy="34.5"
       rx="13.33688"
       ry="14.836882" />
    <path
       id="ellipse22104"
       style="fill:#e6e6e6;fill-opacity:1;stroke:#373748;stroke-width:1.03816;stroke-miterlimit:4;stroke-dasharray:none;stroke-dashoffset:73.5682;stroke-opacity:1;paint-order:normal"
       d="m 7.8432199,28.843584 a 3.9999999,3.9999999 0 0 0 -2e-7,5.656509 l 5.6568753,5.656875 a 3.9999999,3.9999999 0 0 0 5.656509,-10e-7 3.9999999,3.9999999 0 0 0 3.66e-4,-5.656874 l -5.656875,-5.656875 a 3.9999999,3.9999999 0 0 0 -5.6568751,3.66e-4 z" />
    <ellipse
       style="fill:#e6a51e;fill-opacity:1;stroke:#373748;stroke-width:1.22223;stroke-miterlimit:4;stroke-dasharray:none;stroke-dashoffset:73.5682;stroke-opacity:1"
       id="path20420"
       cx="10.500004"
       cy="30.500002"
       rx="4.8888888"
       ry="4.8888865" />
    <path
       id="path22513"
       style="fill:#e6e6e6;fill-opacity:1;stroke:#373748;stroke-width:1.03816;stroke-miterlimit:4;stroke-dasharray:none;stroke-dashoffset:73.5682;stroke-opacity:1;paint-order:normal"
       d="m 33.156968,28.843584 a 3.9999999,3.9999999 0 0 1 0,5.656509 l -5.656875,5.656875 a 3.9999999,3.9999999 0 0 1 -5.656509,-10e-7 3.9999999,3.9999999 0 0 1 -3.66e-4,-5.656874 l 5.656875,-5.656875 a 3.9999999,3.9999999 0 0 1 5.656875,3.66e-4 z" />
    <ellipse
       style="fill:#e6a51e;fill-opacity:1;stroke:#373748;stroke-width:1.22223;stroke-miterlimit:4;stroke-dasharray:none;stroke-dashoffset:73.5682;stroke-opacity:1"
       id="ellipse20538"
       cx="30.500004"
       cy="30.500002"
       rx="4.8888888"
       ry="4.8888865" />
    <ellipse
       style="fill:#e6e6e6;fill-opacity:1;stroke:#373748;stroke-width:1;stroke-miterlimit:4;stroke-dasharray:none;stroke-dashoffset:62.3201;stroke-opacity:1"
       id="ellipse13224"
       cx="40.082127"
       cy="39.471264"
       rx="6.25"
       ry="3.75"
       transform="rotate(15)" />
    <ellipse
       style="fill:#e6e6e6;fill-opacity:1;stroke:#373748;stroke-width:1;stroke-miterlimit:4;stroke-dasharray:none;stroke-dashoffset:62.3201;stroke-opacity:1"
       id="path13042"
       cx="-0.47830582"
       cy="50.083073"
       rx="6.25"
       ry="3.75"
       transform="rotate(-15)" />
    <g
       id="g18520"
       transform="translate(53.18125,0.79375)"
       inkscape:export-filename="C:\Users\marcu\Desktop\Godot Projects\4.1.1\SpaceWalker\Sprites\Astronaut\Head.png"
       inkscape:export-xdpi="800"
       inkscape:export-ydpi="800">
      <path
         id="path18492"
         style="fill:#e6e6e6;fill-opacity:1;stroke:#373748;stroke-width:0.523727;stroke-miterlimit:4;stroke-dasharray:none;stroke-dashoffset:62.3201;stroke-opacity:1"
         d="m 1.250045,9.125 a 1.3749395,1.2916122 0 0 0 -1.374995,1.291667 v 5.166666 A 1.3749395,1.2916122 0 0 0 1.250045,16.875 1.3749395,1.2916122 0 0 0 2.625055,15.583333 V 10.416667 A 1.3749395,1.2916122 0 0 0 1.250045,9.125 Z" />
      <path
         id="path18494"
         style="fill:#e6e6e6;fill-opacity:1;stroke:none;stroke-width:0.491255;stroke-miterlimit:4;stroke-dasharray:none;stroke-dashoffset:62.3201;stroke-opacity:1"
         d="M 1.250053,9.249842 A 1.25,1.25 0 0 0 0,10.499895 v 5.00021 a 1.25,1.25 0 0 0 1.250053,1.250053 1.25,1.25 0 0 0 1.250053,-1.250053 v -5.00021 A 1.25,1.25 0 0 0 1.250053,9.249842 Z" />
      <path
         id="path18496"
         style="fill:#cccccc;fill-opacity:1;stroke:none;stroke-width:0.472908;stroke-miterlimit:4;stroke-dasharray:none;stroke-dashoffset:62.3201;stroke-opacity:1"
         d="m 2.222224,14.714316 a 1.5,1.5 0 0 1 0.02739,0.285256 1.5,1.5 0 0 1 -1.500167,1.500166 1.5,1.5 0 0 1 -0.285255,-0.02842 1.25,1.25 0 0 0 0.786,0.278535 A 1.25,1.25 0 0 0 2.500245,15.4998 1.25,1.25 0 0 0 2.222224,14.714318 Z" />
      <path
         id="path18498"
         style="fill:#cccccc;fill-opacity:1;stroke:none;stroke-width:0.532728;stroke-miterlimit:4;stroke-dasharray:none;stroke-dashoffset:62.3201;stroke-opacity:1"
         d="m 2.000137,9.500165 v 6.999573 A 1.25,1.25 0 0 0 2.49985,15.500314 V 10.500105 A 1.25,1.25 0 0 0 2.000137,9.500165 Z" />
      <path
         id="path18500"
         style="fill:#e6e6e6;fill-opacity:1;stroke:#373748;stroke-width:0.523727;stroke-miterlimit:4;stroke-dasharray:none;stroke-dashoffset:62.3201;stroke-opacity:1"
         d="m 33.25005,9.125 a 1.3749395,1.2916122 0 0 0 -1.374995,1.291667 v 5.166666 A 1.3749395,1.2916122 0 0 0 33.25005,16.875 1.3749395,1.2916122 0 0 0 34.62506,15.583333 V 10.416667 A 1.3749395,1.2916122 0 0 0 33.25005,9.125 Z" />
      <path
         id="path18502"
         style="fill:#e6e6e6;fill-opacity:1;stroke:none;stroke-width:0.491255;stroke-miterlimit:4;stroke-dasharray:none;stroke-dashoffset:62.3201;stroke-opacity:1"
         d="M 33.25005,9.249842 A 1.25,1.25 0 0 0 32,10.499895 v 5.00021 a 1.25,1.25 0 0 0 1.25005,1.250053 1.25,1.25 0 0 0 1.25006,-1.250053 v -5.00021 A 1.25,1.25 0 0 0 33.25005,9.249842 Z" />
      <path
         id="path18504"
         style="fill:#cccccc;fill-opacity:1;stroke:none;stroke-width:0.472908;stroke-miterlimit:4;stroke-dasharray:none;stroke-dashoffset:62.3201;stroke-opacity:1"
         d="m 34.22222,14.714316 a 1.5,1.5 0 0 1 0.0274,0.285256 1.5,1.5 0 0 1 -1.500163,1.500166 1.5,1.5 0 0 1 -0.285255,-0.02842 1.25,1.25 0 0 0 0.785998,0.278535 1.25,1.25 0 0 0 1.25005,-1.250053 1.25,1.25 0 0 0 -0.27802,-0.785482 z" />
      <path
         id="path18506"
         style="fill:#cccccc;fill-opacity:1;stroke:none;stroke-width:0.532728;stroke-miterlimit:4;stroke-dasharray:none;stroke-dashoffset:62.3201;stroke-opacity:1"
         d="m 34.00014,9.500165 v 6.999573 a 1.25,1.25 0 0 0 0.49971,-0.999424 v -5.000209 a 1.25,1.25 0 0 0 -0.49971,-0.99994 z" />
      <ellipse
         style="fill:#e6e6e6;stroke:#373748;stroke-width:0.5;stroke-miterlimit:4;stroke-dasharray:none;stroke-dashoffset:19.4649;stroke-opacity:1"
         id="ellipse18508"
         cx="17.250061"
         cy="13"
         rx="15"
         ry="13" />
      <ellipse
         style="fill:#373748;stroke:#e6a51e;stroke-width:0.493931;stroke-miterlimit:4;stroke-dasharray:none;stroke-dashoffset:16.4889;stroke-opacity:1"
         id="ellipse18510"
         cx="17.250061"
         cy="13"
         rx="14.253034"
         ry="9.7530346" />
      <path
         id="path18512"
         style="fill:#1f1c24;stroke:none;stroke-width:0.483203;stroke-miterlimit:4;stroke-dasharray:none;stroke-dashoffset:16.4889;stroke-opacity:1"
         d="M 17.996289,3.5140752 A 15,10 0 0 1 28.249928,12.9998 15,10 0 0 1 17.992672,22.481909 14,9.4999999 0 0 0 31.25026,12.9998 14,9.4999999 0 0 0 17.996289,3.5140752 Z" />
      <ellipse
         style="fill:#5d536c;fill-opacity:1;stroke:none;stroke-width:0.497449;stroke-miterlimit:4;stroke-dasharray:none;stroke-dashoffset:62.3201;stroke-opacity:1"
         id="ellipse18514"
         cx="10.390547"
         cy="25.075552"
         rx="3.75"
         ry="2.5"
         transform="rotate(-30)" />
      <ellipse
         style="fill:#5d536c;fill-opacity:1;stroke:none;stroke-width:0.265928;stroke-miterlimit:4;stroke-dasharray:none;stroke-dashoffset:62.3201;stroke-opacity:1"
         id="ellipse18516"
         cx="11.278944"
         cy="20.484732"
         rx="2.0046844"
         ry="1.3364563"
         transform="rotate(-30)" />
      <path
         id="path18518"
         style="fill:#beb7c8;fill-opacity:1;stroke:none;stroke-width:0.391843;stroke-miterlimit:4;stroke-dasharray:none;stroke-dashoffset:62.3201;stroke-opacity:1"
         d="M 7.8966488,5.9371822 A 14,9.4999999 0 0 0 4.8632406,8.581981 2.9538911,1.9692608 30 0 0 5.6874812,9.1989973 2.9538911,1.9692608 30 0 0 9.230416,8.9705878 2.9538911,1.9692608 30 0 0 7.8966488,5.9371822 Z" />
    </g>
    <g
       id="g18526"
       transform="translate(59.134376,8.4666663)"
       inkscape:export-filename="C:\Users\marcu\Desktop\Godot Projects\4.1.1\SpaceWalker\Sprites\Astronaut\Body.png"
       inkscape:export-xdpi="800"
       inkscape:export-ydpi="800">
      <ellipse
         style="fill:#ececec;fill-opacity:1;stroke:#373748;stroke-width:0.395;stroke-miterlimit:4;stroke-dasharray:none;stroke-dashoffset:62.3201;stroke-opacity:1"
         id="ellipse18522"
         cx="17.250061"
         cy="35"
         rx="7.5"
         ry="15" />
      <path
         id="path18524"
         style="fill:#cccccc;fill-opacity:1;stroke:none;stroke-width:1.46496;stroke-miterlimit:4;stroke-dasharray:none;stroke-dashoffset:62.3201;stroke-opacity:1"
         d="m 73.490234,78.925781 a 27.599999,55.946456 0 0 1 11.75,45.800779 A 27.599999,55.946456 0 0 1 57.640625,180.67188 27.599999,55.946456 0 0 1 49.3125,178.03125 27.599999,55.946456 0 0 0 65.197266,188.23047 27.599999,55.946456 0 0 0 92.796875,132.2832 27.599999,55.946456 0 0 0 73.490234,78.925781 Z"
         transform="scale(0.26458333)" />
    </g>
    <path
       id="path18528"
       style="fill:#e6e6e6;fill-opacity:1;stroke:#373748;stroke-width:0.44;stroke-miterlimit:4;stroke-dasharray:none;stroke-dashoffset:73.5682;stroke-opacity:1"
       d="m 93.687157,44.650599 a 3.9999999,3.9999999 0 0 0 3.999755,-3.999756 V 30.650419 a 3.9999999,3.9999999 0 0 0 -3.999757,-4.000272 3.9999999,3.9999999 0 0 0 -4.000272,4.000273 v 10.000422 a 3.9999999,3.9999999 0 0 0 4.000274,3.999757 z"
       inkscape:export-filename="C:\Users\marcu\Desktop\Godot Projects\4.1.1\SpaceWalker\Sprites\Astronaut\Arm.png"
       inkscape:export-xdpi="800"
       inkscape:export-ydpi="800" />
    <ellipse
       style="fill:#e6e6e6;fill-opacity:1;stroke:#373748;stroke-width:0.510203;stroke-miterlimit:4;stroke-dasharray:none;stroke-dashoffset:62.3201;stroke-opacity:1"
       id="ellipse18530"
       cx="93.277641"
       cy="53.497932"
       rx="6.25"
       ry="3.75"
       inkscape:export-filename="C:\Users\marcu\Desktop\Godot Projects\4.1.1\SpaceWalker\Sprites\Astronaut\Foot.png"
       inkscape:export-xdpi="800"
       inkscape:export-ydpi="800" />
    <path
       id="path18532"
       style="fill:#e6a51e;fill-opacity:1;stroke:#373748;stroke-width:0.385;stroke-miterlimit:4;stroke-dasharray:none;stroke-dashoffset:73.5682;stroke-opacity:1"
       d="m 93.52292,21.526183 a 1.25,1.25 0 0 0 1.25006,1.250054 1.25,1.25 0 0 0 1.25005,-1.250054 V 7.5260017 a 1.25,1.25 0 0 0 -1.25005,-1.25005 1.25,1.25 0 0 0 -1.25006,1.25005 z"
       inkscape:export-filename="C:\Users\marcu\Desktop\Godot Projects\4.1.1\SpaceWalker\Sprites\Astronaut\Belt.png"
       inkscape:export-xdpi="800"
       inkscape:export-ydpi="800" />
    <path
       id="path18534"
       style="fill:#e6a51e;fill-opacity:1;stroke:#373748;stroke-width:0.449154;stroke-miterlimit:4;stroke-dasharray:none;stroke-dashoffset:62.3201;stroke-opacity:1"
       d="m 99.656212,9.7720964 a 1.25,1.25 0 0 1 1.250048,1.2500516 l 1e-5,7.499804 a 1.25,1.25 0 0 1 -1.250068,1.250051 1.25,1.25 0 0 1 -1.249525,-1.250053 l -5.18e-4,1e-6 -2e-6,-7.499802 5.16e-4,10e-7 a 1.25,1.25 0 0 1 1.249539,-1.2500536 z"
       inkscape:export-filename="C:\Users\marcu\Desktop\Godot Projects\4.1.1\SpaceWalker\Sprites\Astronaut\Connector.png"
       inkscape:export-xdpi="800"
       inkscape:export-ydpi="800" />
    <g
       id="g22652"
       transform="translate(3.25,5.5)">
      <ellipse
         style="fill:#e6e6e6;stroke:#373748;stroke-width:1;stroke-miterlimit:4;stroke-dasharray:none;stroke-dashoffset:19.4649;stroke-opacity:1"
         id="path864"
         cx="17.250061"
         cy="13"
         rx="15"
         ry="13" />
      <ellipse
         style="fill:#373748;stroke:#373748;stroke-width:1.4;stroke-miterlimit:4;stroke-dasharray:none;stroke-dashoffset:16.4889;stroke-opacity:1;paint-order:stroke fill markers"
         id="ellipse946"
         cx="17.250061"
         cy="13"
         rx="12.202513"
         ry="8.3499088" />
      <path
         id="ellipse18976"
         style="fill:#1f1c24;fill-opacity:1;stroke:none;stroke-width:0.422872;stroke-miterlimit:4;stroke-dasharray:none;stroke-dashoffset:16.4889;stroke-opacity:1"
         d="m 22.364917,5.4193434 a 12.413949,8.5613443 0 0 1 4.730794,6.7243376 12.413949,8.5613443 0 0 1 -12.414297,8.561706 12.413949,8.5613443 0 0 1 -2.869535,-0.236694 12.202513,8.3499086 0 0 0 5.438224,0.8813 12.202513,8.3499086 0 0 0 12.202379,-8.349787 12.202513,8.3499086 0 0 0 -7.087565,-7.5808626 z" />
    </g>
    <g
       id="g22660"
       transform="translate(0.26458333,65.748958)"
       inkscape:export-filename="C:\Users\marcu\Desktop\Godot Projects\4.1.1\SpaceWalker\Sprites\Astronaut 2\Head.png"
       inkscape:export-xdpi="800"
       inkscape:export-ydpi="800">
      <ellipse
         style="fill:#e6e6e6;stroke:#373748;stroke-width:1;stroke-miterlimit:4;stroke-dasharray:none;stroke-dashoffset:19.4649;stroke-opacity:1"
         id="ellipse22654"
         cx="17.250061"
         cy="13"
         rx="15"
         ry="13" />
      <ellipse
         style="fill:#373748;stroke:#373748;stroke-width:1.4;stroke-miterlimit:4;stroke-dasharray:none;stroke-dashoffset:16.4889;stroke-opacity:1;paint-order:stroke fill markers"
         id="ellipse22656"
         cx="17.250061"
         cy="13"
         rx="12.202513"
         ry="8.3499088" />
      <path
         id="path22658"
         style="fill:#1f1c24;fill-opacity:1;stroke:none;stroke-width:0.422872;stroke-miterlimit:4;stroke-dasharray:none;stroke-dashoffset:16.4889;stroke-opacity:1"
         d="m 22.364917,5.4193434 a 12.413949,8.5613443 0 0 1 4.730794,6.7243376 12.413949,8.5613443 0 0 1 -12.414297,8.561706 12.413949,8.5613443 0 0 1 -2.869535,-0.236694 12.202513,8.3499086 0 0 0 5.438224,0.8813 12.202513,8.3499086 0 0 0 12.202379,-8.349787 12.202513,8.3499086 0 0 0 -7.087565,-7.5808626 z" />
    </g>
    <ellipse
       style="fill:#e6a51e;fill-opacity:1;stroke:#373748;stroke-width:1.22223;stroke-miterlimit:4;stroke-dasharray:none;stroke-dashoffset:73.5682;stroke-opacity:1"
       id="ellipse22662"
       cx="41.008339"
       cy="80.430214"
       rx="4.8888888"
       ry="4.8888865"
       inkscape:export-filename="C:\Users\marcu\Desktop\Godot Projects\4.1.1\SpaceWalker\Sprites\Astronaut 2\Shoulder.png"
       inkscape:export-xdpi="800"
       inkscape:export-ydpi="800" />
    <path
       id="path22664"
       style="fill:#e6e6e6;fill-opacity:1;stroke:#373748;stroke-width:1.03816;stroke-miterlimit:4;stroke-dasharray:none;stroke-dashoffset:73.5682;stroke-opacity:1;paint-order:normal"
       d="m 40.125352,87.939906 a 3.9999999,3.9999999 0 0 1 3.999756,3.999756 l -10e-7,8.000029 a 3.9999999,3.9999999 0 0 1 -3.999756,3.999759 3.9999999,3.9999999 0 0 1 -4.000273,-3.999759 l 0,-8.000029 a 3.9999999,3.9999999 0 0 1 4.000274,-3.999756 z"
       inkscape:export-filename="C:\Users\marcu\Desktop\Godot Projects\4.1.1\SpaceWalker\Sprites\Astronaut 2\Arm.png"
       inkscape:export-xdpi="800"
       inkscape:export-ydpi="800" />
    <ellipse
       style="fill:#e6e6e6;fill-opacity:1;stroke:#373748;stroke-width:1;stroke-miterlimit:4;stroke-dasharray:none;stroke-dashoffset:62.3201;stroke-opacity:1"
       id="ellipse22666"
       cx="40.735867"
       cy="110.86597"
       rx="6.25"
       ry="3.75"
       inkscape:export-filename="C:\Users\marcu\Desktop\Godot Projects\4.1.1\SpaceWalker\Sprites\Astronaut 2\Foot.png"
       inkscape:export-xdpi="800"
       inkscape:export-ydpi="800" />
    <ellipse
       style="fill:#ececec;fill-opacity:1;stroke:#373748;stroke-width:1.32624;stroke-miterlimit:4;stroke-dasharray:none;stroke-dashoffset:62.3201;stroke-opacity:1"
       id="ellipse22668"
       cx="15.53027"
       cy="110.62395"
       rx="13.33688"
       ry="14.836882"
       inkscape:export-filename="C:\Users\marcu\Desktop\Godot Projects\4.1.1\SpaceWalker\Sprites\Astronaut 2\Body.png"
       inkscape:export-xdpi="800"
       inkscape:export-ydpi="800" />
  </g>
</svg>
